<?xml version="1.0" standalone="no"?>
<!DOCTYPE svg PUBLIC "-//W3C//DTD SVG 20010904//EN"
 "http://www.w3.org/TR/2001/REC-SVG-20010904/DTD/svg10.dtd">
<svg version="1.0" xmlns="http://www.w3.org/2000/svg"
 width="1024.000000pt" height="1024.000000pt" viewBox="0 0 1024.000000 1024.000000"
 preserveAspectRatio="xMidYMid meet">

<g transform="translate(0.000000,1024.000000) scale(0.100000,-0.100000)"
fill="#000000" stroke="none">
<path d="M0 5120 l0 -5120 5120 0 5120 0 0 5120 0 5120 -5120 0 -5120 0 0
-5120z m5725 2941 c440 -47 755 -141 1090 -325 386 -212 699 -501 951 -881
240 -360 397 -801 456 -1275 17 -139 17 -621 0 -760 -62 -505 -212 -925 -467
-1310 -405 -610 -1013 -1024 -1720 -1169 -270 -56 -229 -54 -1612 -58 l-1283
-4 0 876 0 875 335 0 335 0 0 -531 0 -530 968 4 c937 3 970 4 1077 25 397 77
739 253 1023 527 200 192 317 353 442 608 113 232 174 424 222 702 30 176 32
533 5 700 -113 677 -457 1216 -989 1547 -187 116 -443 216 -673 263 -233 47
-244 48 -1182 52 l-893 4 0 -475 0 -476 -335 0 -335 0 0 816 0 816 1238 -5
c855 -3 1271 -8 1347 -16z m482 -1276 c124 -39 227 -120 304 -239 142 -217
120 -512 -52 -700 -57 -63 -161 -134 -231 -161 l-48 -18 0 -537 0 -538 28 -7
c57 -14 159 -81 223 -145 259 -262 222 -699 -76 -899 -114 -76 -184 -96 -335
-96 -105 0 -136 4 -193 23 -180 63 -324 222 -373 414 -16 62 -16 231 1 283 5
18 -46 52 -412 274 -230 140 -425 259 -434 264 -12 8 -29 0 -69 -32 -113 -89
-218 -125 -365 -125 -171 0 -295 51 -412 169 -321 326 -167 880 277 991 97 24
263 15 353 -19 77 -30 144 -72 204 -130 l41 -40 294 183 c161 101 347 217 414
258 l121 75 -14 56 c-17 74 -16 201 2 279 47 200 214 374 408 427 28 7 100 14
159 14 87 1 121 -4 185 -24z m-3435 -751 c167 -96 306 -179 310 -182 4 -4 8
-167 8 -362 l1 -355 -312 -183 -313 -183 -32 18 c-17 10 -160 92 -317 183
l-286 165 -1 357 0 357 317 180 c174 100 318 181 319 181 2 0 139 -79 306
-176z"/>
<path d="M5946 6455 c-161 -57 -204 -290 -74 -400 48 -40 89 -55 156 -55 108
0 198 74 221 181 20 91 -8 171 -81 233 -64 55 -142 70 -222 41z"/>
<path d="M5210 5493 l-445 -277 0 -81 c0 -44 -3 -94 -7 -110 -6 -30 -4 -32 90
-89 53 -33 249 -153 436 -268 l338 -208 37 29 c52 41 120 77 169 92 l42 12 0
539 c0 458 -2 538 -14 538 -23 0 -105 38 -153 70 -24 17 -45 30 -46 30 -1 0
-202 -125 -447 -277z"/>
<path d="M4085 5350 c-49 -23 -63 -35 -97 -80 -115 -152 -1 -370 192 -370 133
0 230 100 230 237 0 168 -177 285 -325 213z"/>
<path d="M5975 4261 c-110 -27 -179 -117 -179 -231 0 -208 236 -317 382 -177
136 130 86 349 -92 402 -54 16 -65 17 -111 6z"/>
</g>
</svg>
