<?xml version="1.0" standalone="no"?>
<!DOCTYPE svg PUBLIC "-//W3C//DTD SVG 20010904//EN"
 "http://www.w3.org/TR/2001/REC-SVG-20010904/DTD/svg10.dtd">
<svg version="1.0" xmlns="http://www.w3.org/2000/svg"
 width="1024.000000pt" height="1024.000000pt" viewBox="0 0 1024.000000 1024.000000"
 preserveAspectRatio="xMidYMid meet">

<g transform="translate(0.000000,1024.000000) scale(0.100000,-0.100000)"
fill="#000000" stroke="none">
<path d="M0 5120 l0 -5120 5120 0 5120 0 0 5120 0 5120 -5120 0 -5120 0 0
-5120z m5278 3446 c377 -18 795 -187 1107 -447 376 -314 611 -764 665 -1270 5
-52 10 -190 10 -306 l0 -213 -289 0 -289 0 -5 233 c-6 252 -17 334 -66 484
-69 211 -172 376 -335 539 -266 267 -573 395 -949 395 -162 1 -298 -20 -436
-67 -396 -132 -710 -441 -849 -836 -56 -157 -65 -222 -71 -493 l-6 -250 -294
-3 -293 -2 5 267 c5 288 16 376 67 569 179 676 704 1186 1390 1352 164 40 352
61 485 55 22 -1 91 -4 153 -7z m1957 -2609 c202 -72 346 -215 412 -410 l28
-82 3 -1467 c3 -1641 7 -1543 -69 -1698 -59 -119 -171 -231 -290 -288 -161
-78 -6 -73 -2234 -70 l-1990 3 -85 30 c-204 71 -352 222 -422 430 l-23 70 -3
1455 c-3 1624 -6 1545 66 1695 86 177 236 299 427 346 65 17 201 18 2085 16
l2015 -2 80 -28z"/>
<path d="M3808 3965 l2 -1425 400 0 400 0 0 550 0 550 510 0 510 0 0 -550 0
-550 400 0 400 0 0 1409 c0 775 3 1416 6 1425 6 14 -34 16 -400 16 l-406 0 0
-530 0 -530 -510 0 -510 0 0 530 0 530 -402 0 -403 0 3 -1425z"/>
</g>
</svg>
